<svg width="10" height="16" viewBox="0 0 10 16" fill="none" xmlns="http://www.w3.org/2000/svg">
<path d="M1.45433 15.3605C1.43114 15.3814 1.40605 15.4 1.37939 15.4162C1.19311 15.5292 0.959805 15.5278 0.775026 15.4128C0.59603 15.3014 0.498401 15.1074 0.500021 14.9111M1.45433 15.3605L8.99998 14.9141H9.49998V14.9111V1.28005C9.49998 1.08086 9.42486 0.885192 9.28398 0.737235C9.1423 0.588444 8.94477 0.5 8.73331 0.5H1.26669C0.820469 0.5 0.500021 0.872608 0.500021 1.28005V14.9111M1.45433 15.3605L5.03278 12.1429L1.45433 15.3605ZM0.500021 14.9111C0.500043 14.9084 0.500083 14.9057 0.500141 14.9031L1.00002 14.9141H0.500021V14.9111Z" stroke="#4B5FF7" stroke-linecap="round" stroke-linejoin="round"/>
</svg>
