<svg width="16" height="16" viewBox="0 0 16 16" fill="none" xmlns="http://www.w3.org/2000/svg">
<path fill-rule="evenodd" clip-rule="evenodd" d="M15.8359 7.91795C15.8359 12.2803 12.294 15.8359 7.91795 15.8359C3.54188 15.8359 0 12.2803 0 7.91795C0 3.54188 3.55556 0 7.91795 0C12.2803 0 15.8359 3.54188 15.8359 7.91795ZM14.7282 7.91792C14.7282 4.15724 11.6786 1.10767 7.91792 1.10767C4.15724 1.10767 1.10767 4.15724 1.10767 7.91792C1.10767 11.6649 4.15724 14.7282 7.91792 14.7282C11.6786 14.7282 14.7282 11.6786 14.7282 7.91792Z" fill="black"/>
<path d="M7.54897 8.84789H10.1883C10.5028 8.84789 10.749 8.60173 10.749 8.2872C10.749 7.97267 10.5028 7.72652 10.1883 7.72652H8.10965V4.47182C8.10965 4.15729 7.86349 3.91113 7.54897 3.91113C7.23444 3.91113 6.98828 4.15729 6.98828 4.47182V8.2872C6.98828 8.60173 7.23444 8.84789 7.54897 8.84789Z" fill="black"/>
</svg>
