<svg width="16" height="14" viewBox="0 0 16 14" fill="none" xmlns="http://www.w3.org/2000/svg">
<path fill-rule="evenodd" clip-rule="evenodd" d="M11.5884 0.0266667C13.667 0.0266667 15.2807 1.45333 15.732 3.66667C16.3884 6.96 14.2961 11.36 8.14224 13.8133C8.07387 13.84 8.00549 13.8533 7.93711 13.8533C7.86874 13.8533 7.80036 13.84 7.73199 13.8133C1.56446 11.4133 -0.541519 7 0.114892 3.68C0.552498 1.44 2.17985 0 4.25848 0C5.43455 0 6.69267 0.466667 7.93711 1.37333C9.16788 0.493333 10.426 0.0266667 11.5884 0.0266667ZM1.20891 3.88002C0.648225 6.72002 2.52173 10.5334 7.93711 12.72C13.3388 10.4934 15.1987 6.69335 14.638 3.88002C14.2961 2.20002 13.1063 1.12002 11.5884 1.12002C10.5628 1.12002 9.42771 1.58668 8.27899 2.48002C8.07387 2.64002 7.78669 2.64002 7.58156 2.48002C6.43284 1.56002 5.28412 1.08002 4.25848 1.08002C2.74053 1.08002 1.53711 2.18668 1.20891 3.88002Z" fill="#4B5FF7"/>
</svg>
