<svg width="16" height="14" viewBox="0 0 16 14" fill="none" xmlns="http://www.w3.org/2000/svg">
<path fill-rule="evenodd" clip-rule="evenodd" d="M11.5884 0.0266685C13.667 0.0266685 15.2807 1.45333 15.732 3.66667C16.3884 6.96 14.2961 11.36 8.14224 13.8133C8.07387 13.84 8.00549 13.8533 7.93711 13.8533C7.86874 13.8533 7.80036 13.84 7.73199 13.8133C1.56446 11.4133 -0.541519 7 0.114892 3.68C0.552498 1.44 2.17985 0 4.25848 0C5.43455 0 6.69267 0.466667 7.93711 1.37333C9.16788 0.493332 10.426 0.0266685 11.5884 0.0266685ZM1.20891 3.87996C0.648225 6.71996 2.52173 10.5333 7.93711 12.72C13.3388 10.4933 15.1987 6.69329 14.638 3.87996C14.2961 2.19995 13.1063 1.11996 11.5884 1.11996C10.5628 1.11996 9.42771 1.58662 8.27899 2.47996C8.07387 2.63996 7.78669 2.63996 7.58156 2.47996C6.43284 1.55996 5.28412 1.07996 4.25848 1.07996C2.74053 1.07996 1.53711 2.18662 1.20891 3.87996Z" fill="black"/>
</svg>
