<svg width="27" height="23" viewBox="0 0 27 23" fill="none" xmlns="http://www.w3.org/2000/svg">
<path fill-rule="evenodd" clip-rule="evenodd" d="M18.3541 7.20476C18.1369 6.99201 18.0107 6.69588 18.0107 6.39401C18.0107 6.08926 18.1369 5.79313 18.3541 5.58038C18.5742 5.36476 18.8764 5.24401 19.1846 5.24401C19.4957 5.24401 19.798 5.36476 20.0151 5.58038C20.2323 5.79313 20.3585 6.09213 20.3585 6.39401C20.3585 6.69588 20.2323 6.99201 20.0151 7.20476C19.795 7.42038 19.4928 7.54401 19.1846 7.54401C18.8764 7.54401 18.5742 7.42038 18.3541 7.20476ZM5.46912 6.32498C5.46912 5.68989 5.99473 5.17498 6.64303 5.17498H15.1416C15.7899 5.17498 16.3155 5.68989 16.3155 6.32498C16.3155 6.96006 15.7899 7.47498 15.1416 7.47498H6.64303C5.99473 7.47498 5.46912 6.96006 5.46912 6.32498ZM24.6502 14.6625H21.4744C21.1296 14.6625 20.7375 14.8206 20.5145 15.0785L17.3132 18.7142V15.8317C17.3132 15.1967 16.9161 14.6625 16.2679 14.6625H2.34583V2.29998H24.6502V14.6625ZM25.8261 0H1.17391C0.52562 0 0 0.514912 0 1.15V15.8318C0 16.4669 0.52562 16.9625 1.17391 16.9625H14.9674V21.85C14.9674 22.3324 15.3392 22.7637 15.8015 22.9296C15.9335 22.977 16.1023 23 16.2376 23C16.5759 23 16.922 22.8468 17.1494 22.5837L22.0206 16.9625H25.8261C26.4744 16.9625 27 16.4669 27 15.8318V1.15C27 0.514912 26.4744 0 25.8261 0Z" fill="black"/>
</svg>
