<svg width="85" height="85" viewBox="0 0 85 85" fill="none" xmlns="http://www.w3.org/2000/svg">
<g filter="url(#filter0_d)">
<circle cx="38.5" cy="38.5" r="22.5" fill="#4B5FF7"/>
</g>
<path fill-rule="evenodd" clip-rule="evenodd" d="M45 38.3774C45 37.7678 44.5058 37.2736 43.8962 37.2736H39.4811V33.1038C39.4811 32.4942 38.9869 32 38.3774 32C37.7678 32 37.2736 32.4942 37.2736 33.1038V37.2736H33.1038C32.4942 37.2736 32 37.7678 32 38.3774C32 38.9869 32.4942 39.4811 33.1038 39.4811H37.2736V43.8962C37.2736 44.5058 37.7678 45 38.3774 45C38.9869 45 39.4811 44.5058 39.4811 43.8962V39.4811H43.8962C44.5058 39.4811 45 38.9869 45 38.3774Z" fill="white"/>
<defs>
<filter id="filter0_d" x="0" y="0" width="85" height="85" filterUnits="userSpaceOnUse" color-interpolation-filters="sRGB">
<feFlood flood-opacity="0" result="BackgroundImageFix"/>
<feColorMatrix in="SourceAlpha" type="matrix" values="0 0 0 0 0 0 0 0 0 0 0 0 0 0 0 0 0 0 127 0"/>
<feOffset dx="4" dy="4"/>
<feGaussianBlur stdDeviation="10"/>
<feColorMatrix type="matrix" values="0 0 0 0 0 0 0 0 0 0 0 0 0 0 0 0 0 0 0.15 0"/>
<feBlend mode="normal" in2="BackgroundImageFix" result="effect1_dropShadow"/>
<feBlend mode="normal" in="SourceGraphic" in2="effect1_dropShadow" result="shape"/>
</filter>
</defs>
</svg>
