<svg width="103" height="24" viewBox="0 0 103 24" fill="none" xmlns="http://www.w3.org/2000/svg">
<path d="M7.95 17.3C6.57 17.3 5.22 17.08 3.9 16.64C2.58 16.18 1.46 15.52 0.54 14.66L2.49 11.24C3.47 11.9 4.41 12.41 5.31 12.77C6.23 13.13 7.07 13.31 7.83 13.31C8.63 13.31 9.03 13.06 9.03 12.56C9.03 12.28 8.87 12.04 8.55 11.84C8.25 11.64 7.65 11.41 6.75 11.15C5.63 10.83 4.69 10.52 3.93 10.22C3.19 9.9 2.58 9.56 2.1 9.2C1.64 8.84 1.31 8.44 1.11 8C0.91 7.56 0.81 7.04 0.81 6.44C0.81 5.64 0.97 4.9 1.29 4.22C1.61 3.54 2.05 2.95 2.61 2.45C3.19 1.95 3.87 1.57 4.65 1.31C5.45 1.03 6.32 0.89 7.26 0.89C8.42 0.89 9.52 1.04 10.56 1.34C11.62 1.64 12.68 2.25 13.74 3.17L11.58 6.59C10.6 5.95 9.78 5.5 9.12 5.24C8.46 4.96 7.84 4.82 7.26 4.82C6.92 4.82 6.64 4.89 6.42 5.03C6.2 5.15 6.09 5.35 6.09 5.63C6.09 5.93 6.25 6.18 6.57 6.38C6.89 6.56 7.52 6.77 8.46 7.01C9.6 7.31 10.56 7.63 11.34 7.97C12.12 8.29 12.74 8.65 13.2 9.05C13.68 9.43 14.02 9.87 14.22 10.37C14.42 10.85 14.52 11.41 14.52 12.05C14.52 12.87 14.37 13.6 14.07 14.24C13.77 14.88 13.33 15.43 12.75 15.89C12.19 16.35 11.5 16.7 10.68 16.94C9.88 17.18 8.97 17.3 7.95 17.3ZM27.0893 17.3C25.9493 17.3 24.9593 17.08 24.1193 16.64C23.2793 16.18 22.6293 15.52 22.1693 14.66V23.39H16.4693V1.22H21.4193V3.59C21.9793 2.73 22.6693 2.07 23.4893 1.61C24.3093 1.15 25.3193 0.92 26.5193 0.92C27.5593 0.92 28.5293 1.13 29.4293 1.55C30.3293 1.95 31.0993 2.51 31.7393 3.23C32.3793 3.95 32.8793 4.81 33.2393 5.81C33.6193 6.81 33.8093 7.89 33.8093 9.05C33.8093 10.23 33.6393 11.33 33.2993 12.35C32.9593 13.35 32.4893 14.22 31.8893 14.96C31.2893 15.7 30.5793 16.28 29.7593 16.7C28.9393 17.1 28.0493 17.3 27.0893 17.3ZM25.1093 12.5C25.5293 12.5 25.9093 12.41 26.2493 12.23C26.6093 12.05 26.9093 11.8 27.1493 11.48C27.4093 11.16 27.6093 10.79 27.7493 10.37C27.9093 9.95 27.9893 9.5 27.9893 9.02C27.9893 8.02 27.6993 7.22 27.1193 6.62C26.5593 6.02 25.8093 5.72 24.8693 5.72C23.8093 5.72 22.9093 6.26 22.1693 7.34V10.07C22.4493 10.77 22.8593 11.35 23.3993 11.81C23.9393 12.27 24.5093 12.5 25.1093 12.5ZM40.5431 17.3C39.7631 17.3 39.0331 17.17 38.3531 16.91C37.6731 16.65 37.0831 16.3 36.5831 15.86C36.1031 15.4 35.7231 14.86 35.4431 14.24C35.1631 13.62 35.0231 12.95 35.0231 12.23C35.0231 11.43 35.1931 10.7 35.5331 10.04C35.8731 9.38 36.3431 8.81 36.9431 8.33C37.5431 7.85 38.2531 7.48 39.0731 7.22C39.9131 6.96 40.8331 6.83 41.8331 6.83C43.1131 6.83 44.1731 7.03 45.0131 7.43V6.95C45.0131 6.21 44.7931 5.66 44.3531 5.3C43.9331 4.94 43.2431 4.76 42.2831 4.76C41.3831 4.76 40.5531 4.91 39.7931 5.21C39.0331 5.49 38.2331 5.91 37.3931 6.47L35.7431 2.93C37.8231 1.59 40.1931 0.92 42.8531 0.92C45.3731 0.92 47.3131 1.48 48.6731 2.6C50.0331 3.72 50.7131 5.4 50.7131 7.64V10.7C50.7131 11.24 50.7931 11.62 50.9531 11.84C51.1131 12.04 51.3931 12.16 51.7931 12.2V17C51.3331 17.1 50.8931 17.17 50.4731 17.21C50.0731 17.27 49.7131 17.3 49.3931 17.3C48.3731 17.3 47.5931 17.12 47.0531 16.76C46.5331 16.38 46.1931 15.83 46.0331 15.11L45.9131 14.54C45.2131 15.44 44.4031 16.13 43.4831 16.61C42.5631 17.07 41.5831 17.3 40.5431 17.3ZM42.2531 13.22C42.5931 13.22 42.9431 13.17 43.3031 13.07C43.6631 12.95 43.9831 12.8 44.2631 12.62C44.4831 12.46 44.6631 12.29 44.8031 12.11C44.9431 11.91 45.0131 11.71 45.0131 11.51V10.34C44.6731 10.22 44.3031 10.12 43.9031 10.04C43.5031 9.96 43.1431 9.92 42.8231 9.92C42.1231 9.92 41.5431 10.09 41.0831 10.43C40.6231 10.77 40.3931 11.2 40.3931 11.72C40.3931 12.16 40.5631 12.52 40.9031 12.8C41.2631 13.08 41.7131 13.22 42.2531 13.22ZM52.9821 9.11C52.9821 8.03 53.1721 7 53.5521 6.02C53.9321 5.02 54.4821 4.15 55.2021 3.41C55.9421 2.65 56.8521 2.05 57.9321 1.61C59.0121 1.15 60.2521 0.92 61.6521 0.92C63.5721 0.92 65.1721 1.32 66.4521 2.12C67.7521 2.92 68.7221 3.95 69.3621 5.21L63.8121 6.89C63.2721 6.11 62.5421 5.72 61.6221 5.72C60.8421 5.72 60.1821 6.02 59.6421 6.62C59.1021 7.2 58.8321 8.03 58.8321 9.11C58.8321 10.19 59.1021 11.03 59.6421 11.63C60.1821 12.21 60.8421 12.5 61.6221 12.5C62.5421 12.5 63.2721 12.11 63.8121 11.33L69.3621 13.01C68.7221 14.27 67.7521 15.3 66.4521 16.1C65.1721 16.9 63.5721 17.3 61.6521 17.3C60.2521 17.3 59.0121 17.08 57.9321 16.64C56.8521 16.18 55.9421 15.58 55.2021 14.84C54.4821 14.08 53.9321 13.21 53.5521 12.23C53.1721 11.23 52.9821 10.19 52.9821 9.11ZM78.7901 17.3C77.4101 17.3 76.1801 17.09 75.1001 16.67C74.0201 16.23 73.1101 15.64 72.3701 14.9C71.6501 14.16 71.1001 13.31 70.7201 12.35C70.3401 11.39 70.1501 10.38 70.1501 9.32C70.1501 8.18 70.3301 7.1 70.6901 6.08C71.0701 5.06 71.6201 4.17 72.3401 3.41C73.0801 2.65 73.9801 2.05 75.0401 1.61C76.1201 1.15 77.3701 0.92 78.7901 0.92C80.1901 0.92 81.4301 1.15 82.5101 1.61C83.5901 2.05 84.4901 2.65 85.2101 3.41C85.9501 4.15 86.5001 5.02 86.8601 6.02C87.2401 7 87.4301 8.03 87.4301 9.11C87.4301 9.41 87.4101 9.72 87.3701 10.04C87.3501 10.34 87.3201 10.61 87.2801 10.85H76.2101C76.2701 11.69 76.5801 12.3 77.1401 12.68C77.7001 13.04 78.3101 13.22 78.9701 13.22C79.5901 13.22 80.1701 13.08 80.7101 12.8C81.2701 12.52 81.6401 12.13 81.8201 11.63L86.6501 13.01C86.0101 14.27 85.0201 15.3 83.6801 16.1C82.3601 16.9 80.7301 17.3 78.7901 17.3ZM81.3101 7.43C81.2101 6.67 80.9301 6.07 80.4701 5.63C80.0101 5.19 79.4201 4.97 78.7001 4.97C77.9801 4.97 77.3901 5.19 76.9301 5.63C76.4701 6.07 76.1901 6.67 76.0901 7.43H81.3101ZM95.8113 17.3C94.4313 17.3 93.0813 17.08 91.7613 16.64C90.4413 16.18 89.3213 15.52 88.4013 14.66L90.3513 11.24C91.3313 11.9 92.2713 12.41 93.1713 12.77C94.0913 13.13 94.9313 13.31 95.6913 13.31C96.4913 13.31 96.8913 13.06 96.8913 12.56C96.8913 12.28 96.7313 12.04 96.4113 11.84C96.1113 11.64 95.5113 11.41 94.6113 11.15C93.4913 10.83 92.5513 10.52 91.7913 10.22C91.0513 9.9 90.4413 9.56 89.9613 9.2C89.5013 8.84 89.1713 8.44 88.9713 8C88.7713 7.56 88.6713 7.04 88.6713 6.44C88.6713 5.64 88.8313 4.9 89.1513 4.22C89.4713 3.54 89.9113 2.95 90.4713 2.45C91.0513 1.95 91.7313 1.57 92.5113 1.31C93.3113 1.03 94.1813 0.89 95.1213 0.89C96.2813 0.89 97.3813 1.04 98.4213 1.34C99.4813 1.64 100.541 2.25 101.601 3.17L99.4413 6.59C98.4613 5.95 97.6413 5.5 96.9813 5.24C96.3213 4.96 95.7013 4.82 95.1213 4.82C94.7813 4.82 94.5013 4.89 94.2813 5.03C94.0613 5.15 93.9513 5.35 93.9513 5.63C93.9513 5.93 94.1113 6.18 94.4313 6.38C94.7513 6.56 95.3813 6.77 96.3213 7.01C97.4613 7.31 98.4213 7.63 99.2013 7.97C99.9813 8.29 100.601 8.65 101.061 9.05C101.541 9.43 101.881 9.87 102.081 10.37C102.281 10.85 102.381 11.41 102.381 12.05C102.381 12.87 102.231 13.6 101.931 14.24C101.631 14.88 101.191 15.43 100.611 15.89C100.051 16.35 99.3613 16.7 98.5413 16.94C97.7413 17.18 96.8313 17.3 95.8113 17.3Z" fill="#FAFF00"/>
</svg>
