<svg width="16" height="14" viewBox="0 0 16 14" fill="none" xmlns="http://www.w3.org/2000/svg">
<path fill-rule="evenodd" clip-rule="evenodd" d="M11.5884 0.0266647C13.667 0.0266647 15.2807 1.45333 15.732 3.66666C16.3884 6.96 14.2961 11.36 8.14224 13.8133C8.07387 13.84 8.00549 13.8533 7.93711 13.8533C7.86874 13.8533 7.80036 13.84 7.73199 13.8133C1.56446 11.4133 -0.541519 7 0.114892 3.68C0.552498 1.44 2.17985 0 4.25848 0C5.43455 0 6.69267 0.466667 7.93711 1.37334C9.16788 0.493332 10.426 0.0266647 11.5884 0.0266647ZM1.20891 3.87999C0.648225 6.71999 2.52173 10.5333 7.93711 12.72C13.3388 10.4933 15.1987 6.69332 14.638 3.87999C14.2961 2.19999 13.1063 1.11999 11.5884 1.11999C10.5628 1.11999 9.42771 1.58665 8.27899 2.47999C8.07387 2.63998 7.78669 2.63998 7.58156 2.47999C6.43284 1.55999 5.28412 1.07999 4.25848 1.07999C2.74053 1.07999 1.53711 2.18665 1.20891 3.87999Z" fill="#FAFF00"/>
</svg>
