<svg width="8" height="15" viewBox="0 0 8 15" fill="none" xmlns="http://www.w3.org/2000/svg">
<path d="M1.96073 2.90502C1.96073 3.28303 1.96073 4.97023 1.96073 4.97023H0.445312V7.49557H1.96073V15H5.07371V7.49578H7.16267C7.16267 7.49578 7.35831 6.2849 7.45314 4.96092C7.18125 4.96092 5.08548 4.96092 5.08548 4.96092C5.08548 4.96092 5.08548 3.49175 5.08548 3.23424C5.08548 2.97617 5.42489 2.62902 5.76035 2.62902C6.09519 2.62902 6.80188 2.62902 7.45642 2.62902C7.45642 2.2852 7.45642 1.09719 7.45642 9.02086e-09C6.58263 9.02086e-09 5.58854 9.02086e-09 5.15035 9.02086e-09C1.88378 -0.000174364 1.96073 2.52768 1.96073 2.90502Z" fill="white"/>
</svg>
