<svg width="16" height="15" viewBox="0 0 16 15" fill="none" xmlns="http://www.w3.org/2000/svg">
<path d="M15.0238 8.78789V14.3335H11.8037V9.1593C11.8037 7.85949 11.3379 6.97242 10.1724 6.97242C9.28261 6.97242 8.75312 7.57024 8.52017 8.14853C8.43522 8.35527 8.41336 8.64302 8.41336 8.93241V14.3335H5.1922C5.1922 14.3335 5.23558 5.57007 5.1922 4.66211H8.41304V6.033C8.40651 6.04325 8.39802 6.05431 8.39188 6.06425H8.41304V6.033C8.84096 5.37495 9.60518 4.4349 11.3158 4.4349C13.435 4.43487 15.0238 5.81719 15.0238 8.78789ZM1.82272 0C0.72077 0 0 0.721661 0 1.67067C0 2.599 0.699917 3.34256 1.77997 3.34256H1.80149C2.92478 3.34256 3.62337 2.59914 3.62337 1.67067C3.60221 0.721661 2.92478 0 1.82272 0ZM0.191309 14.3335H3.41125V4.66211H0.191309V14.3335Z" fill="white"/>
</svg>
