<svg width="16" height="11" viewBox="0 0 16 11" fill="none" xmlns="http://www.w3.org/2000/svg">
<path d="M14.2981 4.9626C15.1419 4.8931 15.7143 4.5101 15.9345 3.99043C15.6301 4.17711 14.6853 4.38064 14.1635 4.18681C14.1379 4.0644 14.1093 3.94812 14.0813 3.84315C13.6837 2.38544 12.3224 1.21106 10.8959 1.35293C11.0113 1.30641 11.1284 1.26309 11.2451 1.22421C11.4021 1.16806 12.3233 1.01841 12.1782 0.693758C12.056 0.408201 10.9305 0.909564 10.7186 0.975095C10.9983 0.870051 11.461 0.689363 11.5105 0.368408C11.0819 0.427103 10.6612 0.629413 10.3361 0.923584C10.4535 0.797441 10.5425 0.643712 10.5614 0.478265C9.41832 1.2074 8.75057 2.67738 8.21018 4.10332C7.78585 3.69273 7.40977 3.36941 7.07239 3.18987C6.1259 2.6831 4.99422 2.15436 3.21774 1.49592C3.16322 2.08276 3.50843 2.86305 4.50315 3.38196C4.28763 3.35315 3.89352 3.41743 3.57832 3.49279C3.70669 4.16508 4.12591 4.71897 5.26084 4.98681C4.74217 5.02098 4.47412 5.13883 4.23119 5.39282C4.46741 5.86039 5.04386 6.41068 6.08081 6.29772C4.92792 6.79386 5.61073 7.71264 6.54883 7.57562C4.9485 9.22601 2.4254 9.10471 0.976562 7.72432C4.75939 12.8709 12.9824 10.768 14.2078 5.81087C15.1259 5.81868 15.6657 5.49333 16.0003 5.13464C15.4714 5.22427 14.7046 5.13164 14.2981 4.9626Z" fill="white"/>
</svg>
